<svg width="59" height="11" viewBox="0 0 59 11" fill="none"
    xmlns="http://www.w3.org/2000/svg">
    <g clip-path="url(#clip0_141_66)">
        <path d="M3.60215 8.49504C2.46237 8.49504 1.57706 8.23638 0.946237 7.72246C0.315412 7.20853 0 6.4836 0 5.55445C0 4.90099 0.121864 4.26794 0.365591 3.65872C0.609319 3.0495 0.960573 2.50154 1.41935 2.01485C1.87814 1.52815 2.42652 1.14356 3.06452 0.861072C3.70251 0.578584 4.41577 0.435638 5.2043 0.435638C5.99283 0.435638 6.58781 0.55476 6.97133 0.796406C7.35484 1.03465 7.5448 1.34436 7.5448 1.72215C7.5448 2.09993 7.36918 2.3586 7.02151 2.53898C6.67384 2.71936 6.24014 2.81126 5.72043 2.81126C5.72043 2.6581 5.70968 2.48793 5.68459 2.30074C5.66308 2.11355 5.62007 1.93316 5.55914 1.76639C5.49821 1.59962 5.4086 1.46008 5.29032 1.35117C5.17204 1.24226 5.01434 1.1878 4.81362 1.1878C4.4767 1.1878 4.17204 1.2797 3.89606 1.46008C3.62007 1.64047 3.37634 1.88211 3.16129 2.18502C2.94624 2.48793 2.76703 2.82487 2.61649 3.20266C2.46595 3.58044 2.35484 3.96503 2.27957 4.35643C2.2043 4.74783 2.16487 5.12561 2.16487 5.48978C2.16487 6.14325 2.32975 6.64016 2.6595 6.9805C2.98925 7.32085 3.4767 7.49102 4.12903 7.49102C4.65591 7.49102 5.08244 7.38892 5.4086 7.18131C5.73477 6.9737 5.99283 6.74907 6.1828 6.50061C6.22939 6.53805 6.27599 6.5891 6.319 6.65717C6.36201 6.72524 6.3871 6.80012 6.3871 6.8818C6.3871 7.14387 6.27599 7.39913 6.05376 7.64418C5.83154 7.89263 5.51613 8.09344 5.10036 8.2534C4.68817 8.41336 4.18638 8.49164 3.59857 8.49164L3.60215 8.49504Z" fill="black"/>
        <path d="M9.22223 8.49506C8.84588 8.49506 8.53405 8.40657 8.28674 8.23299C8.03943 8.05941 7.84947 7.82117 7.72043 7.51826C7.5914 7.21535 7.52689 6.87841 7.52689 6.50063C7.52689 6.16028 7.57707 5.80292 7.68101 5.42854C7.78495 5.05415 7.93549 4.68998 8.13262 4.33943C8.32975 3.98887 8.57707 3.66894 8.87097 3.37965C9.16488 3.09376 9.50897 2.86573 9.89606 2.69215C10.2867 2.52198 10.7168 2.43689 11.1936 2.43689C11.5054 2.43689 11.8315 2.47773 12.1613 2.56282C12.4946 2.6479 12.7491 2.72959 12.9247 2.80787L13.5771 2.55601H14.276L13.5305 5.92204C13.509 6.00032 13.4803 6.11263 13.4516 6.25558C13.4194 6.39852 13.3907 6.54147 13.3656 6.68441C13.3405 6.83076 13.3262 6.94988 13.3262 7.04518C13.3262 7.21876 13.3656 7.34809 13.4409 7.43318C13.5161 7.51826 13.6165 7.5591 13.7384 7.5591C13.8387 7.5591 13.9283 7.54209 14.0143 7.50465C14.1004 7.46721 14.1936 7.41956 14.3011 7.3617L14.5771 7.84159C14.3692 7.98794 14.1183 8.13089 13.8244 8.27724C13.5305 8.42358 13.1505 8.49506 12.6846 8.49506C12.3262 8.49506 12.0323 8.42018 11.8065 8.27043C11.5806 8.12068 11.4695 7.89605 11.4695 7.58974C11.4695 7.43658 11.491 7.23918 11.5376 6.99073H11.4588C11.2581 7.31065 11.0681 7.58293 10.8781 7.80756C10.6918 8.03219 10.4695 8.20236 10.2115 8.31808C9.95699 8.4338 9.62366 8.49165 9.21864 8.49165L9.22223 8.49506ZM10.0717 7.54889C10.2796 7.54889 10.491 7.43658 10.7133 7.21195C10.9355 6.98732 11.1326 6.69803 11.3082 6.34747C11.4839 5.99691 11.6093 5.62934 11.6882 5.25156L12.0789 3.48856C12.0108 3.40007 11.914 3.3354 11.7921 3.29116C11.6703 3.24691 11.5412 3.22649 11.4014 3.22649C11.1505 3.22649 10.9212 3.30137 10.7204 3.45112C10.5161 3.60087 10.3405 3.79828 10.1864 4.04333C10.0323 4.29178 9.90681 4.56065 9.80287 4.84995C9.69893 5.13924 9.62366 5.43194 9.57348 5.72123C9.5233 6.01053 9.49821 6.2726 9.49821 6.50403C9.49821 6.90224 9.55198 7.17792 9.66309 7.32767C9.7742 7.47742 9.9104 7.5523 10.0717 7.5523V7.54889Z" fill="black"/>
        <path d="M14.233 11C14.1183 11 13.9892 10.9898 13.8423 10.9728C13.6989 10.9558 13.5878 10.9353 13.509 10.9115L13.6702 10.224C13.7312 10.2376 13.8136 10.2546 13.9176 10.2717C14.0215 10.2887 14.1147 10.2989 14.1971 10.2989C14.448 10.2989 14.6631 10.2478 14.8351 10.1457C15.0072 10.0436 15.1577 9.86324 15.2867 9.60118C15.4158 9.33911 15.534 8.96473 15.6416 8.47803L16.7778 3.32519H15.7348L15.871 2.77042L16.9713 2.54239L17.0645 2.15099C17.2545 1.42605 17.5806 0.884902 18.0394 0.527539C18.4982 0.170175 19.1434 -0.00680542 19.9785 -0.00680542C20.6129 -0.00680542 21.0932 0.0918951 21.4229 0.285893C21.7527 0.483294 21.9176 0.718133 21.9176 0.993813C21.9176 1.23206 21.7921 1.42265 21.5376 1.5656C21.2867 1.70854 20.9211 1.77661 20.448 1.77661C20.448 1.50093 20.4086 1.24907 20.3333 1.02444C20.2581 0.799816 20.1183 0.687502 19.9211 0.687502C19.7061 0.687502 19.5412 0.782799 19.4229 0.976796C19.3047 1.17079 19.2079 1.45668 19.129 1.84128L18.9785 2.53899H20.491L20.319 3.32178H18.7921L17.7133 8.1479C17.5842 8.7367 17.3871 9.21659 17.129 9.58416C16.8674 9.95514 16.5735 10.241 16.2401 10.4452C15.9068 10.6494 15.5663 10.789 15.2151 10.8707C14.8638 10.949 14.534 10.9898 14.2294 10.9898L14.233 11Z" fill="black"/>
        <path d="M23.2616 8.49506C22.7706 8.49506 22.3262 8.41337 21.9211 8.25001C21.5161 8.08664 21.19 7.83819 20.9462 7.50805C20.7025 7.17792 20.5806 6.75589 20.5806 6.23856C20.5806 5.83355 20.6702 5.40811 20.8459 4.96566C21.0215 4.52321 21.2796 4.11139 21.6201 3.73021C21.9606 3.34902 22.3835 3.0393 22.8925 2.79766C23.4014 2.55941 23.9892 2.43689 24.6523 2.43689C25.2258 2.43689 25.6702 2.55261 25.9892 2.78404C26.3082 3.01548 26.4659 3.332 26.4659 3.73021C26.4659 4.12841 26.3154 4.49599 26.0179 4.82953C25.7204 5.16307 25.3118 5.43534 24.7921 5.63955C24.2724 5.84716 23.6846 5.94927 23.0251 5.94927H22.5878C22.5735 6.02074 22.5663 6.09221 22.5663 6.16028V6.35087C22.5663 6.74908 22.6667 7.0588 22.871 7.27662C23.0717 7.49444 23.3835 7.60335 23.8064 7.60335C24.19 7.60335 24.5233 7.50805 24.8172 7.31406C25.1075 7.12346 25.3333 6.90904 25.4946 6.67761C25.6021 6.79333 25.6559 6.96009 25.6559 7.17792C25.6559 7.36851 25.5735 7.56251 25.405 7.76672C25.2366 7.97092 24.9785 8.1411 24.6237 8.27724C24.2724 8.41678 23.8208 8.48485 23.2688 8.48485L23.2616 8.49506ZM22.6523 5.2924H22.7455C23.0968 5.2924 23.4158 5.23113 23.6989 5.11201C23.9821 4.99289 24.2079 4.82612 24.3763 4.6117C24.5448 4.39729 24.6272 4.14203 24.6272 3.84252C24.6272 3.6247 24.5806 3.45453 24.491 3.332C24.3978 3.20948 24.2688 3.14821 24.1004 3.14821C23.871 3.14821 23.6559 3.25712 23.4516 3.47495C23.2473 3.69277 23.0753 3.96845 22.9355 4.29859C22.7921 4.62872 22.6989 4.96226 22.6559 5.2958L22.6523 5.2924Z" fill="black"/>
        <path d="M28.4086 11C27.4229 11 26.724 10.8741 26.3082 10.6188C25.8961 10.3635 25.6882 10.0334 25.6882 9.62839C25.6882 9.39015 25.7742 9.17913 25.9462 8.99534C26.1183 8.81496 26.3441 8.66521 26.6237 8.55289C26.9032 8.44058 27.1971 8.3589 27.5125 8.30784C27.3584 8.22957 27.2186 8.11044 27.0932 7.95388C26.9677 7.79732 26.9032 7.61354 26.9032 7.40252C26.9032 7.17109 27.0108 6.95327 27.2258 6.74906C27.4409 6.54485 27.7634 6.32362 28.2007 6.08538C27.9498 5.96966 27.7527 5.79949 27.6093 5.57827C27.4659 5.35704 27.3979 5.09157 27.3979 4.77845C27.3979 4.52319 27.4588 4.26112 27.5806 3.98885C27.7025 3.71657 27.8853 3.46131 28.1326 3.22647C28.3763 2.99163 28.6846 2.80104 29.0573 2.65469C29.4265 2.50834 29.8638 2.43687 30.3584 2.43687C30.6201 2.43687 30.8638 2.4675 31.0932 2.52536C31.3226 2.58322 31.5233 2.67171 31.7025 2.78742C31.8853 2.58322 32.086 2.41304 32.3047 2.2701C32.5233 2.12715 32.7742 2.05908 33.0573 2.05908C33.3011 2.05908 33.4839 2.12034 33.6022 2.23947C33.7204 2.35859 33.7814 2.50153 33.7814 2.6683C33.7814 2.84869 33.7312 3.03247 33.6272 3.21286C33.5233 3.39324 33.3262 3.48513 33.0358 3.48513C33.0358 3.15159 32.8889 2.98482 32.5986 2.98482C32.4086 2.98482 32.2366 3.04268 32.0824 3.1584C32.1577 3.26051 32.2258 3.38984 32.2903 3.5498C32.3513 3.70976 32.3835 3.87313 32.3835 4.0399C32.3835 4.30197 32.3262 4.56403 32.2186 4.8295C32.1075 5.09497 31.9391 5.34002 31.7097 5.57146C31.4803 5.80289 31.1864 5.98328 30.8315 6.12282C30.4767 6.26236 30.0538 6.33043 29.5627 6.33043C29.4946 6.33043 29.3799 6.32362 29.2258 6.31341C29.0681 6.3032 28.9606 6.29299 28.8996 6.28619C28.5233 6.45296 28.3369 6.63334 28.3369 6.83074C28.3369 6.95327 28.3978 7.03495 28.5197 7.07579C28.6416 7.11663 28.7921 7.14386 28.9677 7.15747L30.3333 7.27659C30.8925 7.32765 31.3262 7.474 31.6416 7.71224C31.9534 7.95048 32.1111 8.30784 32.1111 8.78093C32.1111 9.21657 31.9642 9.60116 31.6703 9.9347C31.3763 10.2682 30.9534 10.5303 30.4014 10.7175C29.8495 10.9047 29.19 11 28.4158 11H28.4086ZM28.5699 10.3023C29.2043 10.3023 29.6738 10.207 29.9749 10.0198C30.276 9.8326 30.4265 9.61478 30.4265 9.36632C30.4265 9.17913 30.3441 9.03278 30.1792 8.93068C30.0143 8.82857 29.7312 8.76391 29.3262 8.73328L28.3405 8.64479C28.0358 8.68903 27.7742 8.79794 27.5556 8.97833C27.3369 9.15531 27.2294 9.34931 27.2294 9.56032C27.2294 9.68965 27.2652 9.81218 27.3369 9.92449C27.4086 10.0368 27.5448 10.1287 27.7384 10.1968C27.9319 10.2648 28.2115 10.2989 28.5699 10.2989V10.3023ZM29.5556 5.6089C29.7993 5.6089 30.0036 5.5136 30.1649 5.3196C30.3262 5.1256 30.448 4.89757 30.5305 4.6287C30.6129 4.35982 30.6559 4.10456 30.6559 3.86632C30.6559 3.41706 30.4731 3.19244 30.1039 3.19244C29.8746 3.19244 29.6774 3.28433 29.5125 3.47152C29.3477 3.65531 29.2222 3.88334 29.1326 4.15221C29.043 4.42109 29 4.67635 29 4.91459C29 5.15283 29.0466 5.34002 29.1434 5.44893C29.2401 5.55784 29.3763 5.6123 29.552 5.6123L29.5556 5.6089Z" fill="black"/>
        <path d="M33.6165 8.38613L34.5914 4.06373C34.6057 3.97524 34.6237 3.88335 34.6416 3.78465C34.6595 3.68595 34.6702 3.59065 34.6702 3.49535C34.6702 3.39325 34.6344 3.31497 34.5663 3.25711C34.4982 3.19925 34.3728 3.16862 34.1864 3.16862H33.9104L34.0251 2.54919H36.767L36.5269 4.00927H36.5627C36.8459 3.45791 37.1434 3.05971 37.4588 2.81125C37.7706 2.5628 38.1864 2.44028 38.6989 2.44028C39.5699 2.44028 40.0072 2.7534 40.0072 3.37623C40.0072 3.78465 39.871 4.08415 39.6057 4.28155C39.3405 4.47895 38.9677 4.57425 38.4946 4.57425C38.4946 4.21008 38.4552 3.92759 38.3728 3.71998C38.2903 3.51237 38.1434 3.41026 37.9319 3.41026C37.7634 3.41026 37.5878 3.49535 37.4086 3.66552C37.2294 3.8357 37.0538 4.06713 36.8817 4.36323C36.7097 4.65593 36.552 4.99288 36.405 5.36385C36.2581 5.73824 36.1398 6.13304 36.0502 6.54486L35.6129 8.38613H33.6165Z" fill="black"/>
        <path d="M41.8423 8.49506C41.466 8.49506 41.1541 8.40657 40.9068 8.23299C40.6595 8.05941 40.4695 7.82117 40.3405 7.51826C40.2115 7.21535 40.147 6.87841 40.147 6.50063C40.147 6.16028 40.1971 5.80292 40.3011 5.42854C40.405 5.05415 40.5556 4.68998 40.7527 4.33943C40.9498 3.98887 41.1971 3.66894 41.491 3.37965C41.785 3.09376 42.129 2.86573 42.5161 2.69215C42.9068 2.52198 43.3369 2.43689 43.8136 2.43689C44.1255 2.43689 44.4516 2.47773 44.7814 2.56282C45.1147 2.6479 45.3692 2.72959 45.5448 2.80787L46.1971 2.55601H46.8961L46.1505 5.92204C46.129 6.00032 46.1004 6.11263 46.0717 6.25558C46.0394 6.39852 46.0108 6.54147 45.9857 6.68441C45.957 6.83076 45.9462 6.94988 45.9462 7.04518C45.9462 7.21876 45.9857 7.34809 46.0609 7.43318C46.1362 7.51826 46.2366 7.5591 46.3584 7.5591C46.4588 7.5591 46.5484 7.54209 46.6344 7.50465C46.7168 7.46721 46.8136 7.41956 46.9212 7.3617L47.1971 7.84159C46.9892 7.98794 46.7419 8.13089 46.4444 8.27724C46.1505 8.42358 45.7706 8.49506 45.3047 8.49506C44.9462 8.49506 44.6523 8.42018 44.4265 8.27043C44.2007 8.12068 44.0896 7.89605 44.0896 7.58974C44.0896 7.43658 44.1111 7.23918 44.1577 6.99073H44.0789C43.8817 7.31065 43.6882 7.58293 43.4982 7.80756C43.3118 8.03219 43.0896 8.20236 42.8315 8.31808C42.5771 8.4338 42.2437 8.49165 41.8387 8.49165L41.8423 8.49506ZM42.6882 7.54889C42.8961 7.54889 43.1075 7.43658 43.3298 7.21195C43.552 6.98732 43.7491 6.69803 43.9247 6.34747C44.1004 5.99691 44.2258 5.62934 44.3047 5.25156L44.6953 3.48856C44.6272 3.40007 44.5305 3.3354 44.4086 3.29116C44.2867 3.24691 44.1577 3.22649 44.0179 3.22649C43.767 3.22649 43.5376 3.30137 43.3369 3.45112C43.1326 3.60087 42.957 3.79828 42.8029 4.04333C42.6487 4.29178 42.5233 4.56065 42.4194 4.84995C42.3154 5.13924 42.2401 5.43194 42.19 5.72123C42.1398 6.01053 42.1147 6.2726 42.1147 6.50403C42.1147 6.90224 42.1685 7.17792 42.2796 7.32767C42.3907 7.47742 42.5269 7.5523 42.6882 7.5523V7.54889Z" fill="black"/>
        <path d="M57.1075 8.47464C56.6272 8.47464 56.2545 8.37254 55.9964 8.16833C55.7348 7.96412 55.6057 7.67142 55.6057 7.28683C55.6057 7.14048 55.6201 6.97371 55.6452 6.77971C55.6738 6.58912 55.7168 6.36109 55.7778 6.09902L55.9713 5.22773C56 5.08138 56.043 4.89079 56.0932 4.64914C56.1434 4.4075 56.1685 4.20669 56.1685 4.03992C56.1685 3.90378 56.147 3.76424 56.1039 3.6247C56.0609 3.48516 55.9606 3.41709 55.7993 3.41709C55.6237 3.41709 55.4516 3.50898 55.2832 3.68937C55.1147 3.86975 54.957 4.09098 54.8136 4.35304C54.6667 4.61511 54.5484 4.87718 54.4516 5.13584C54.3548 5.3945 54.2939 5.60892 54.2616 5.76888L54.1685 6.2794C54.1362 6.43256 54.1039 6.63336 54.0717 6.88522C54.0358 7.13708 54.0036 7.39574 53.9677 7.66461C53.9319 7.93349 53.9068 8.17173 53.8925 8.38275H51.828C51.8495 8.16492 51.8889 7.90966 51.9355 7.61356C51.9857 7.32086 52.0358 7.02476 52.0896 6.73206C52.1434 6.43937 52.1971 6.1807 52.2509 5.96288L52.4122 5.23454C52.4875 4.90781 52.5376 4.64574 52.5556 4.45174C52.5735 4.25434 52.5842 4.12161 52.5842 4.05013C52.5842 3.92761 52.5699 3.79828 52.5376 3.66214C52.5054 3.5294 52.4194 3.46133 52.2724 3.46133C52.0968 3.46133 51.9283 3.53621 51.767 3.68937C51.6057 3.84252 51.4588 4.03652 51.319 4.27136C51.1828 4.5062 51.0645 4.75125 50.9642 4.9997C50.8638 5.24815 50.7921 5.47278 50.7455 5.67018L50.0932 8.38275H48.1075L49.0717 4.07055C49.086 3.99227 49.1075 3.90038 49.129 3.80508C49.1505 3.70638 49.1649 3.6247 49.1649 3.56003C49.1649 3.40007 49.1255 3.29456 49.0502 3.24351C48.9749 3.19246 48.8315 3.16864 48.6272 3.16864H48.3871L48.491 2.54921H51.3692L51.1756 3.54982H51.2437C51.5663 3.12779 51.8961 2.8385 52.2366 2.67854C52.5771 2.51857 52.9606 2.44029 53.3907 2.44029C53.8638 2.44029 54.1936 2.55261 54.3763 2.77724C54.5591 3.00187 54.6595 3.28776 54.6738 3.63831V3.70298H54.7312C55 3.26734 55.3118 2.94741 55.6667 2.7398C56.0215 2.53219 56.448 2.43008 56.9462 2.43008C57.276 2.43008 57.5341 2.48794 57.7276 2.60366C57.9176 2.71938 58.0538 2.87253 58.1362 3.05973C58.2151 3.25032 58.2581 3.44772 58.2581 3.65874C58.2581 3.84933 58.233 4.05354 58.1828 4.27817C58.1326 4.50279 58.0896 4.71041 58.0502 4.8976L57.81 6.03095C57.7634 6.22835 57.724 6.40874 57.6953 6.57551C57.6667 6.74228 57.6487 6.89883 57.6487 7.04518C57.6487 7.3583 57.7814 7.51486 58.0502 7.51486C58.172 7.51486 58.2796 7.49444 58.3728 7.4502C58.466 7.40595 58.5699 7.34469 58.6953 7.26641L59.0036 7.66802C58.8208 7.86542 58.5735 8.0458 58.2688 8.21938C57.9642 8.38955 57.5771 8.47464 57.1111 8.47464H57.1075Z" fill="black"/>
    </g>
    <defs>
        <clipPath id="clip0_141_66">
            <rect width="59" height="11" fill="white"/>
        </clipPath>
    </defs>
</svg>
