<svg width="311" height="37" viewBox="0 0 311 37" fill="none" xmlns="http://www.w3.org/2000/svg">
<g clip-path="url(#clip0_188_2)">
<path d="M0 27.86L0.4 25.81H0.87C1.64 25.81 2.33 25.69 2.96 25.45C3.58 25.21 3.98 24.67 4.15 23.83L7.78 6.66C7.85 6.32 7.91 6.05 7.96 5.85C8.01 5.65 8.03 5.48 8.03 5.36C8.03 4.88 7.78 4.57 7.29 4.42C6.8 4.28 6.18 4.2 5.44 4.2H4.97L5.4 2.15H13.97L22.79 20.04L25.63 6.5C25.7 6.26 25.76 6.04 25.79 5.83C25.83 5.63 25.84 5.46 25.84 5.34C25.84 4.86 25.6 4.55 25.12 4.4C24.64 4.26 24.08 4.18 23.43 4.18H23.25L23.65 2.13H32.76L32.33 4.18H31.86C31.12 4.18 30.43 4.3 29.81 4.54C29.19 4.78 28.79 5.32 28.62 6.16L24.05 27.83H20.34L10.4 7.78L7.09 23.51C7.04 23.82 7 24.07 6.96 24.25C6.92 24.43 6.91 24.57 6.91 24.66C6.91 25.14 7.15 25.45 7.63 25.6C8.11 25.74 8.69 25.82 9.36 25.82H9.54L9.07 27.87H0V27.86Z" fill="black"/>
<path d="M38.92 28.22C36.59 28.22 34.69 27.59 33.21 26.33C31.73 25.07 31 23.17 31 20.62C31 19.25 31.25 17.85 31.74 16.41C32.23 14.97 32.98 13.63 33.99 12.38C35 11.13 36.27 10.12 37.81 9.35999C39.35 8.58999 41.16 8.20999 43.25 8.20999C44.67 8.20999 45.97 8.46999 47.16 8.97999C48.35 9.48999 49.3 10.31 50 11.43C50.71 12.55 51.06 14 51.06 15.8C51.06 17.1 50.82 18.46 50.34 19.9C49.86 21.34 49.13 22.69 48.14 23.95C47.16 25.21 45.9 26.24 44.38 27.03C42.86 27.82 41.04 28.22 38.93 28.22H38.92ZM39.67 25.34C40.37 25.34 41 25.08 41.56 24.57C42.12 24.05 42.61 23.38 43.02 22.55C43.43 21.72 43.77 20.82 44.05 19.83C44.33 18.85 44.53 17.88 44.66 16.93C44.79 15.98 44.86 15.15 44.86 14.43C44.86 13.16 44.64 12.25 44.21 11.69C43.78 11.14 43.19 10.86 42.45 10.86C41.63 10.86 40.9 11.23 40.25 11.96C39.6 12.69 39.06 13.62 38.61 14.73C38.17 15.85 37.82 17.02 37.58 18.24C37.34 19.46 37.22 20.57 37.22 21.55C37.22 22.87 37.44 23.83 37.87 24.43C38.3 25.03 38.9 25.33 39.67 25.33V25.34Z" fill="black"/>
<path d="M81.94 28.15C80.43 28.15 79.26 27.81 78.45 27.14C77.63 26.47 77.23 25.5 77.23 24.22C77.23 23.74 77.27 23.18 77.36 22.55C77.44 21.91 77.58 21.16 77.77 20.3L78.38 17.42C78.48 16.94 78.6 16.3 78.76 15.51C78.92 14.72 78.99 14.05 78.99 13.49C78.99 13.03 78.92 12.58 78.79 12.12C78.66 11.66 78.34 11.44 77.84 11.44C77.29 11.44 76.75 11.74 76.22 12.34C75.69 12.94 75.2 13.67 74.74 14.54C74.28 15.4 73.91 16.27 73.61 17.13C73.31 17.99 73.11 18.69 73.02 19.22L72.73 20.91C72.63 21.41 72.53 22.08 72.42 22.91C72.31 23.74 72.2 24.6 72.1 25.48C71.99 26.37 71.91 27.16 71.87 27.86H65.39C65.46 27.14 65.58 26.29 65.73 25.32C65.89 24.35 66.05 23.38 66.22 22.4C66.39 21.43 66.56 20.58 66.72 19.86L67.22 17.45C67.46 16.37 67.61 15.51 67.67 14.86C67.73 14.21 67.76 13.77 67.76 13.53C67.76 13.12 67.71 12.7 67.62 12.25C67.52 11.81 67.25 11.58 66.79 11.58C66.24 11.58 65.71 11.83 65.21 12.34C64.71 12.85 64.24 13.49 63.81 14.27C63.38 15.05 63.01 15.85 62.69 16.68C62.38 17.51 62.15 18.25 62.01 18.89L59.96 27.85H53.73L56.75 13.59C56.8 13.33 56.86 13.03 56.93 12.71C57 12.39 57.04 12.12 57.04 11.9C57.04 11.37 56.92 11.02 56.68 10.86C56.44 10.69 56 10.61 55.35 10.61H54.59L54.91 8.56H63.95L63.34 11.87H63.56C64.57 10.48 65.61 9.52 66.67 8.99C67.74 8.46 68.94 8.2 70.29 8.2C71.78 8.2 72.81 8.57 73.39 9.32C73.97 10.06 74.28 11.01 74.33 12.16V12.38H74.51C75.35 10.94 76.33 9.88 77.44 9.19C78.56 8.51 79.89 8.16 81.45 8.16C82.48 8.16 83.3 8.35 83.9 8.74C84.5 9.12 84.93 9.63 85.18 10.25C85.43 10.87 85.56 11.53 85.56 12.23C85.56 12.85 85.48 13.54 85.33 14.28C85.17 15.02 85.04 15.71 84.92 16.33L84.16 20.07C84.02 20.72 83.9 21.32 83.8 21.87C83.7 22.42 83.66 22.94 83.66 23.42C83.66 24.45 84.08 24.97 84.92 24.97C85.3 24.97 85.64 24.9 85.93 24.75C86.22 24.61 86.55 24.4 86.94 24.14L87.91 25.47C87.33 26.12 86.57 26.72 85.61 27.29C84.65 27.85 83.44 28.14 81.97 28.14L81.94 28.15Z" fill="black"/>
<path d="M95.18 28.22C94 28.22 93.03 27.93 92.25 27.36C91.47 26.78 90.88 26 90.47 25C90.06 24 89.86 22.88 89.86 21.63C89.86 20.5 90.02 19.32 90.35 18.08C90.67 16.84 91.15 15.64 91.77 14.48C92.39 13.32 93.17 12.26 94.09 11.31C95.01 10.36 96.09 9.61 97.31 9.04C98.53 8.48 99.89 8.19 101.38 8.19C102.36 8.19 103.38 8.33 104.42 8.6C105.46 8.88 106.26 9.15 106.81 9.41L108.86 8.58H111.06L108.72 19.7C108.65 19.96 108.56 20.33 108.47 20.8C108.37 21.27 108.28 21.74 108.2 22.22C108.12 22.7 108.07 23.1 108.07 23.41C108.07 23.99 108.19 24.41 108.43 24.69C108.67 24.97 108.98 25.1 109.37 25.1C109.68 25.1 109.97 25.04 110.23 24.92C110.49 24.8 110.79 24.64 111.13 24.45L111.99 26.03C111.34 26.51 110.56 26.99 109.63 27.47C108.71 27.95 107.51 28.19 106.05 28.19C104.92 28.19 104 27.94 103.3 27.45C102.59 26.96 102.24 26.21 102.24 25.2C102.24 24.7 102.31 24.04 102.46 23.22H102.21C101.59 24.28 100.98 25.18 100.39 25.92C99.8 26.66 99.11 27.23 98.3 27.61C97.5 27.99 96.46 28.19 95.19 28.19L95.18 28.22ZM97.85 25.09C98.5 25.09 99.17 24.72 99.87 23.97C100.57 23.23 101.19 22.27 101.74 21.11C102.29 19.95 102.69 18.74 102.93 17.49L104.15 11.66C103.93 11.37 103.63 11.16 103.25 11.01C102.87 10.87 102.46 10.79 102.03 10.79C101.24 10.79 100.52 11.04 99.89 11.53C99.25 12.02 98.7 12.68 98.22 13.49C97.74 14.31 97.34 15.19 97.01 16.15C96.69 17.11 96.45 18.07 96.29 19.03C96.13 19.99 96.06 20.85 96.06 21.62C96.06 22.94 96.23 23.85 96.58 24.34C96.93 24.83 97.35 25.08 97.86 25.08L97.85 25.09Z" fill="black"/>
<path d="M120.56 28.22C119.26 28.22 118.21 27.91 117.39 27.3C116.57 26.69 115.98 25.88 115.61 24.89C115.24 23.89 115.05 22.81 115.05 21.63C115.05 20.45 115.21 19.32 115.52 18.08C115.83 16.84 116.3 15.64 116.92 14.48C117.54 13.32 118.31 12.26 119.21 11.31C120.11 10.36 121.15 9.61001 122.32 9.04001C123.5 8.48001 124.8 8.19001 126.24 8.19001C126.94 8.19001 127.6 8.27001 128.24 8.44001C128.88 8.61001 129.42 8.82001 129.88 9.09001C129.9 8.78001 129.97 8.38001 130.08 7.88001C130.19 7.39001 130.27 7.03001 130.31 6.82001L130.6 5.52001C130.67 5.18001 130.73 4.87001 130.78 4.57001C130.83 4.27001 130.85 4.02001 130.85 3.83001C130.85 3.37001 130.74 3.04001 130.51 2.84001C130.28 2.64001 129.78 2.53001 129.02 2.53001H128.16L128.52 0.480011H137.99L133.81 20.1C133.71 20.7 133.6 21.33 133.47 21.99C133.34 22.65 133.27 23.18 133.27 23.59C133.27 24.12 133.4 24.5 133.65 24.74C133.9 24.98 134.21 25.1 134.57 25.1C134.88 25.1 135.2 25.02 135.52 24.87C135.84 24.71 136.11 24.58 136.33 24.46L137.19 25.97C136.52 26.52 135.71 27.03 134.76 27.5C133.81 27.97 132.64 28.2 131.25 28.2C130.12 28.2 129.2 27.96 128.5 27.48C127.79 27 127.44 26.23 127.44 25.18C127.44 24.77 127.46 24.4 127.51 24.06C127.56 23.72 127.61 23.45 127.65 23.23H127.43C126.49 25.08 125.49 26.37 124.41 27.1C123.33 27.83 122.05 28.2 120.56 28.2V28.22ZM123.05 25.09C123.7 25.09 124.36 24.72 125.05 23.97C125.73 23.23 126.35 22.27 126.89 21.11C127.43 19.95 127.84 18.74 128.13 17.49L129.35 11.66C129.11 11.4 128.77 11.19 128.34 11.03C127.91 10.87 127.5 10.8 127.12 10.8C126.35 10.8 125.66 11.05 125.05 11.54C124.44 12.03 123.9 12.69 123.43 13.5C122.96 14.32 122.57 15.21 122.24 16.18C121.92 17.15 121.67 18.11 121.5 19.06C121.33 20.01 121.25 20.87 121.25 21.63C121.25 22.95 121.42 23.86 121.77 24.35C122.12 24.84 122.54 25.09 123.05 25.09Z" fill="black"/>
<path d="M156.06 28.22V24.58C156.06 23.26 156.04 21.94 156.01 20.62C155.97 19.3 155.94 18.08 155.9 16.95C155.86 15.82 155.81 14.87 155.74 14.11C155.09 15.69 154.41 17.21 153.71 18.65C153 20.09 152.21 21.54 151.33 23.01C150.45 24.47 149.44 26.06 148.29 27.76L143.29 28.05L142.86 13.29C142.84 12.19 142.6 11.47 142.14 11.13C141.68 10.79 141.12 10.63 140.45 10.63H140.23L140.81 8.57999H148.37C148.47 10.21 148.54 11.72 148.6 13.1C148.66 14.48 148.7 15.93 148.73 17.46C148.75 18.98 148.79 20.74 148.84 22.73H149.13C150.33 20.88 151.48 18.77 152.57 16.39C153.66 14.01 154.7 11.52 155.68 8.89999L160.65 8.75999C160.75 9.47999 160.84 10.37 160.92 11.42C161 12.48 161.08 13.6 161.15 14.8C161.22 16 161.28 17.17 161.33 18.31C161.38 19.45 161.42 20.46 161.46 21.35C161.5 22.24 161.51 22.91 161.51 23.37H161.76C163.2 21.62 164.26 20.11 164.95 18.83C165.63 17.56 166.08 16.5 166.28 15.66C166.48 14.82 166.59 14.14 166.59 13.61C166.59 12.79 166.38 12.17 165.96 11.74C165.54 11.31 165.1 11.04 164.65 10.95C164.72 9.88999 165.05 9.16999 165.64 8.78999C166.23 8.40999 166.87 8.20999 167.57 8.20999C168.43 8.20999 169.11 8.49999 169.59 9.06999C170.07 9.64999 170.31 10.43 170.31 11.41C170.31 12.71 170.03 14.08 169.48 15.53C168.93 16.98 168.18 18.44 167.25 19.9C166.31 21.36 165.28 22.77 164.15 24.11C163.02 25.45 161.88 26.69 160.73 27.82L156.09 28.22H156.06Z" fill="black"/>
<path d="M180.47 28.22C178.14 28.22 176.24 27.59 174.76 26.33C173.28 25.07 172.55 23.17 172.55 20.62C172.55 19.25 172.8 17.85 173.29 16.41C173.78 14.97 174.53 13.63 175.54 12.38C176.55 11.13 177.82 10.12 179.36 9.35999C180.9 8.58999 182.71 8.20999 184.8 8.20999C186.22 8.20999 187.52 8.46999 188.71 8.97999C189.9 9.48999 190.85 10.31 191.55 11.43C192.26 12.55 192.61 14 192.61 15.8C192.61 17.1 192.37 18.46 191.89 19.9C191.41 21.34 190.68 22.69 189.69 23.95C188.71 25.21 187.45 26.24 185.93 27.03C184.41 27.82 182.59 28.22 180.48 28.22H180.47ZM181.22 25.34C181.92 25.34 182.55 25.08 183.11 24.57C183.67 24.05 184.16 23.38 184.57 22.55C184.98 21.72 185.32 20.82 185.6 19.83C185.88 18.85 186.08 17.88 186.21 16.93C186.34 15.98 186.41 15.15 186.41 14.43C186.41 13.16 186.19 12.25 185.76 11.69C185.33 11.14 184.74 10.86 184 10.86C183.18 10.86 182.45 11.23 181.8 11.96C181.15 12.69 180.61 13.62 180.16 14.73C179.72 15.85 179.37 17.02 179.13 18.24C178.89 19.46 178.77 20.57 178.77 21.55C178.77 22.87 178.99 23.83 179.42 24.43C179.85 25.03 180.45 25.33 181.22 25.33V25.34Z" fill="black"/>
<path d="M195.26 27.86L198.32 13.57C198.37 13.28 198.42 12.98 198.48 12.65C198.54 12.33 198.57 12.01 198.57 11.7C198.57 11.36 198.46 11.1 198.25 10.91C198.03 10.72 197.64 10.62 197.06 10.62H196.2L196.56 8.56999H205.16L204.4 13.39H204.51C205.4 11.57 206.33 10.25 207.32 9.42999C208.3 8.60999 209.6 8.20999 211.21 8.20999C213.95 8.20999 215.31 9.23999 215.31 11.31C215.31 12.65 214.89 13.65 214.05 14.3C213.21 14.95 212.05 15.27 210.56 15.27C210.56 14.07 210.43 13.13 210.18 12.44C209.93 11.76 209.47 11.41 208.79 11.41C208.26 11.41 207.72 11.69 207.15 12.26C206.59 12.82 206.03 13.59 205.49 14.56C204.95 15.53 204.45 16.64 204 17.87C203.54 19.11 203.17 20.41 202.88 21.78L201.51 27.86H195.25H195.26Z" fill="black"/>
<path d="M233.78 27.97C231.81 27.97 230.28 27.71 229.19 27.2C228.1 26.68 227.28 25.79 226.72 24.52L224.7 19.73L223.26 20.67L221.71 27.87H215.48L220.23 5.40999C220.4 4.78999 220.48 4.27999 220.48 3.89999C220.48 3.34999 220.36 2.98999 220.12 2.81999C219.88 2.64999 219.45 2.56999 218.82 2.56999H217.85L218.25 0.519989H227.75L225.63 10.17C225.39 11.25 225.2 12.1 225.07 12.71C224.94 13.32 224.82 13.85 224.71 14.29C224.6 14.73 224.48 15.21 224.35 15.73C224.22 16.25 224.04 16.95 223.83 17.84L228.94 13.16C229.56 12.61 229.94 12.21 230.07 11.95C230.2 11.69 230.27 11.5 230.27 11.36C230.27 11.1 230.13 10.89 229.86 10.73C229.58 10.57 229.15 10.5 228.55 10.5L228.91 8.58999H238.41L238.05 10.5C237.21 10.5 236.33 10.73 235.42 11.18C234.51 11.64 233.49 12.39 232.36 13.45L229.59 16.01L232.29 21.84C232.84 23.04 233.33 23.93 233.77 24.5C234.2 25.08 234.6 25.45 234.98 25.63C235.36 25.81 235.72 25.9 236.08 25.9L235.65 27.99H233.78V27.97Z" fill="black"/>
<path d="M241.48 28.15C240.54 28.15 239.78 27.93 239.18 27.48C238.58 27.04 238.28 26.35 238.28 25.41C238.28 24.35 238.59 23.51 239.22 22.89C239.84 22.27 240.67 21.95 241.7 21.95C242.61 21.95 243.37 22.18 243.99 22.63C244.6 23.09 244.91 23.78 244.91 24.72C244.91 25.56 244.74 26.23 244.41 26.74C244.07 27.24 243.64 27.6 243.11 27.82C242.58 28.04 242.04 28.14 241.49 28.14L241.48 28.15Z" fill="black"/>
<path d="M255.78 28.22C254.24 28.22 253.06 27.9 252.22 27.25C251.38 26.6 250.96 25.65 250.96 24.41C250.96 24 251 23.47 251.09 22.81C251.17 22.15 251.32 21.3 251.54 20.27L252.87 13.97C252.97 13.59 253.04 13.21 253.1 12.85C253.16 12.49 253.19 12.19 253.19 11.95C253.19 11.42 253.06 11.07 252.81 10.89C252.56 10.71 252.08 10.62 251.39 10.62H250.67L251.03 8.57H260.35L257.87 20.34C257.7 21.08 257.58 21.7 257.49 22.18C257.41 22.66 257.36 23.13 257.36 23.58C257.36 24.03 257.47 24.4 257.7 24.68C257.93 24.96 258.25 25.09 258.65 25.09C259.01 25.09 259.33 25.03 259.6 24.91C259.88 24.79 260.21 24.6 260.59 24.33L261.53 25.59C260.93 26.26 260.19 26.87 259.3 27.41C258.41 27.95 257.24 28.22 255.77 28.22H255.78ZM257.25 5.47C256.36 5.47 255.62 5.28 255.02 4.89C254.42 4.51 254.12 3.92 254.12 3.13C254.12 1.98 254.51 1.17 255.29 0.7C256.07 0.23 256.95 0 257.94 0C258.8 0 259.56 0.18 260.21 0.54C260.86 0.9 261.18 1.51 261.18 2.38C261.18 3.41 260.78 4.19 259.97 4.7C259.17 5.22 258.26 5.47 257.25 5.47Z" fill="black"/>
<path d="M280.9 28.22C279.39 28.22 278.22 27.87 277.41 27.18C276.59 26.48 276.19 25.55 276.19 24.37C276.19 23.43 276.37 22.11 276.73 20.41L277.31 17.57C277.41 17.09 277.53 16.46 277.67 15.68C277.81 14.9 277.89 14.22 277.89 13.65C277.89 13.19 277.81 12.74 277.66 12.28C277.5 11.82 277.14 11.6 276.56 11.6C275.98 11.6 275.43 11.89 274.89 12.46C274.35 13.04 273.85 13.77 273.38 14.66C272.91 15.55 272.5 16.46 272.16 17.4C271.81 18.34 271.57 19.16 271.42 19.88L269.62 27.87H263.39L266.41 13.61C266.48 13.3 266.55 12.98 266.61 12.66C266.67 12.34 266.7 12.08 266.7 11.89C266.7 11.43 266.59 11.11 266.38 10.92C266.16 10.73 265.71 10.63 265.01 10.63H264.25L264.61 8.57999H273.07L272.93 12.14H273.07C274.03 10.77 275.06 9.77999 276.15 9.14999C277.24 8.52999 278.57 8.20999 280.13 8.20999C281.23 8.20999 282.1 8.40999 282.74 8.79999C283.38 9.19999 283.82 9.70999 284.09 10.35C284.35 10.99 284.49 11.66 284.49 12.38C284.49 13 284.41 13.69 284.26 14.43C284.1 15.17 283.97 15.86 283.85 16.48L283.13 20.19C283.01 20.84 282.9 21.43 282.79 21.97C282.68 22.51 282.63 23.03 282.63 23.54C282.63 24.57 283.05 25.09 283.89 25.09C284.23 25.09 284.54 25.02 284.84 24.87C285.14 24.73 285.49 24.52 285.9 24.26L286.87 25.56C286.29 26.23 285.53 26.84 284.57 27.4C283.61 27.95 282.4 28.23 280.93 28.23L280.9 28.22Z" fill="black"/>
<path d="M293.54 36.5C290.44 36.5 288.25 36.08 286.95 35.24C285.65 34.4 285.01 33.31 285.01 31.96C285.01 31.17 285.28 30.47 285.82 29.87C286.36 29.27 287.07 28.78 287.94 28.41C288.82 28.04 289.74 27.77 290.73 27.6C290.25 27.34 289.81 26.95 289.42 26.43C289.02 25.91 288.83 25.31 288.83 24.61C288.83 23.84 289.17 23.12 289.84 22.45C290.51 21.78 291.53 21.05 292.9 20.25C292.11 19.87 291.49 19.31 291.05 18.58C290.61 17.85 290.38 16.97 290.38 15.93C290.38 15.09 290.57 14.22 290.96 13.32C291.34 12.42 291.92 11.58 292.69 10.8C293.46 10.02 294.42 9.38999 295.59 8.90999C296.75 8.42999 298.12 8.18999 299.68 8.18999C300.5 8.18999 301.26 8.28999 301.98 8.47999C302.7 8.66999 303.34 8.95999 303.89 9.33999C304.47 8.66999 305.1 8.09999 305.78 7.62999C306.46 7.15999 307.25 6.92999 308.14 6.92999C308.91 6.92999 309.48 7.12999 309.85 7.51999C310.22 7.90999 310.41 8.38999 310.41 8.93999C310.41 9.53999 310.25 10.14 309.92 10.74C309.6 11.34 308.98 11.64 308.07 11.64C308.07 10.54 307.61 9.97999 306.7 9.97999C306.1 9.97999 305.56 10.17 305.08 10.56C305.32 10.9 305.54 11.33 305.73 11.86C305.92 12.39 306.02 12.93 306.02 13.48C306.02 14.34 305.85 15.21 305.5 16.09C305.15 16.97 304.62 17.78 303.9 18.54C303.18 19.3 302.26 19.9 301.15 20.36C300.04 20.82 298.71 21.04 297.17 21.04C296.95 21.04 296.6 21.02 296.11 20.99C295.62 20.95 295.28 20.92 295.08 20.9C293.9 21.45 293.32 22.05 293.32 22.7C293.32 23.11 293.51 23.38 293.9 23.51C294.28 23.64 294.75 23.73 295.3 23.78L299.58 24.18C301.33 24.35 302.7 24.83 303.68 25.62C304.66 26.41 305.16 27.59 305.16 29.15C305.16 30.59 304.7 31.86 303.77 32.97C302.85 34.07 301.52 34.94 299.79 35.56C298.06 36.18 295.99 36.5 293.56 36.5H293.54ZM294.04 34.2C296.03 34.2 297.5 33.89 298.45 33.26C299.4 32.64 299.87 31.92 299.87 31.1C299.87 30.48 299.61 30 299.1 29.66C298.58 29.32 297.69 29.11 296.42 29.01L293.32 28.72C292.36 28.86 291.54 29.23 290.85 29.82C290.17 30.41 289.82 31.05 289.82 31.75C289.82 32.18 289.93 32.58 290.16 32.96C290.39 33.33 290.81 33.63 291.42 33.86C292.03 34.09 292.9 34.2 294.03 34.2H294.04ZM297.14 18.68C297.91 18.68 298.54 18.36 299.05 17.73C299.56 17.1 299.94 16.33 300.2 15.44C300.46 14.55 300.6 13.71 300.6 12.92C300.6 11.43 300.02 10.69 298.87 10.69C298.15 10.69 297.53 11 297.02 11.61C296.5 12.22 296.11 12.97 295.83 13.86C295.55 14.75 295.42 15.59 295.42 16.38C295.42 17.17 295.57 17.78 295.87 18.14C296.17 18.5 296.6 18.68 297.15 18.68H297.14Z" fill="black"/>
</g>
<defs>
<clipPath id="clip0_188_2">
<rect width="310.39" height="36.5" fill="white"/>
</clipPath>
</defs>
</svg>
