<svg width="60" height="13" viewBox="0 0 60 13" fill="none"
    xmlns="http://www.w3.org/2000/svg">

    <path d="M0 11.8973L0.171219 11.0069H0.376682C0.709335 11.0069 1.01264 10.9531 1.28659 10.8504C1.55565 10.7477 1.73176 10.5129 1.80514 10.146L3.38524 2.68081C3.41459 2.53405 3.44395 2.41664 3.46351 2.32859C3.48308 2.24053 3.49287 2.16715 3.49287 2.11823C3.49287 1.90788 3.38524 1.77579 3.17 1.7122C2.95475 1.6486 2.68569 1.61925 2.36282 1.61925H2.15736L2.34325 0.728912H6.07093L9.90624 8.50714L11.1439 2.6221C11.1733 2.51937 11.1977 2.42153 11.2124 2.33348C11.2271 2.24542 11.2369 2.17204 11.2369 2.12312C11.2369 1.91277 11.1341 1.78069 10.9238 1.71709C10.7134 1.65349 10.4688 1.62414 10.19 1.62414H10.1117L10.2829 0.733804H14.2454L14.0595 1.62414H13.8541C13.5312 1.62414 13.2328 1.67795 12.9637 1.78069C12.6898 1.88342 12.5185 2.11823 12.4452 2.48513L10.459 11.9071H8.84468L4.52507 3.16022L3.08683 9.99919C3.06726 10.1362 3.0477 10.2438 3.03302 10.3221C3.01834 10.4003 3.00856 10.459 3.00856 10.5031C3.00856 10.7134 3.11129 10.8455 3.32165 10.9091C3.532 10.9727 3.78149 11.002 4.07501 11.002H4.15328L3.94782 11.8924H0V11.8973Z" fill="black"/>
    <path d="M16.9213 12.0538C15.9087 12.0538 15.0819 11.7799 14.4411 11.232C13.8002 10.6841 13.4774 9.85732 13.4774 8.75174C13.4774 8.15492 13.585 7.54831 13.8002 6.92214C14.0155 6.29597 14.3384 5.71382 14.7786 5.17082C15.2189 4.62781 15.7717 4.18753 16.437 3.85488C17.1072 3.52222 17.8948 3.3559 18.7998 3.3559C19.4162 3.3559 19.9837 3.46841 20.4973 3.69344C21.0159 3.91847 21.4268 4.27069 21.735 4.75989C22.0432 5.2442 22.1949 5.88015 22.1949 6.66287C22.1949 7.22544 22.0921 7.82226 21.8818 8.44844C21.6714 9.07461 21.3534 9.66164 20.9278 10.2095C20.4973 10.7574 19.9543 11.2026 19.2939 11.5499C18.6286 11.8924 17.841 12.0685 16.9213 12.0685V12.0538ZM17.2491 10.8015C17.5524 10.8015 17.8263 10.689 18.0709 10.4639C18.3155 10.2389 18.5259 9.94538 18.7069 9.58826C18.883 9.22626 19.0346 8.8349 19.1521 8.40441C19.2695 7.97881 19.3624 7.5581 19.4162 7.14228C19.4749 6.73135 19.5043 6.36935 19.5043 6.05626C19.5043 5.50347 19.4113 5.10722 19.2205 4.86751C19.0346 4.62781 18.7754 4.50551 18.4525 4.50551C18.0954 4.50551 17.7774 4.66694 17.4986 4.98492C17.2148 5.3029 16.98 5.70404 16.7843 6.18835C16.5887 6.67265 16.4419 7.18142 16.3392 7.71464C16.2364 8.24787 16.1826 8.72728 16.1826 9.15288C16.1826 9.72524 16.2756 10.1459 16.4664 10.4052C16.6523 10.6645 16.9164 10.7966 17.2491 10.7966V10.8015Z" fill="black"/>
    <path d="M35.6282 12.0245C34.9727 12.0245 34.4639 11.8777 34.1117 11.5842C33.7546 11.2907 33.5785 10.87 33.5785 10.3172C33.5785 10.1068 33.598 9.86711 33.6323 9.58827C33.6665 9.31432 33.7301 8.98656 33.8133 8.60988L34.0775 7.35753C34.1166 7.14718 34.1753 6.87323 34.2438 6.5259C34.3123 6.18346 34.3465 5.88994 34.3465 5.65024C34.3465 5.45456 34.3172 5.25399 34.2585 5.05342C34.1998 4.85284 34.0628 4.75501 33.8426 4.75501C33.6029 4.75501 33.3681 4.88709 33.1382 5.14636C32.9083 5.40564 32.693 5.72362 32.4974 6.1003C32.3017 6.47698 32.1353 6.85366 32.0033 7.22545C31.8712 7.60213 31.788 7.90543 31.744 8.13536L31.6168 8.86915C31.5728 9.08929 31.5287 9.37792 31.4847 9.73992C31.4358 10.1019 31.3918 10.4737 31.3429 10.8602C31.2939 11.2466 31.2597 11.5891 31.2401 11.8924H28.4223C28.4517 11.5793 28.5055 11.2124 28.5691 10.7868C28.6376 10.3661 28.7061 9.94049 28.7795 9.51978C28.8528 9.09907 28.9262 8.72728 28.9996 8.4142L29.2197 7.36732C29.3225 6.89769 29.391 6.52101 29.4154 6.24216C29.4399 5.95843 29.4546 5.76764 29.4546 5.66491C29.4546 5.4888 29.435 5.30291 29.391 5.10723C29.3469 4.91644 29.2295 4.8186 29.0289 4.8186C28.7892 4.8186 28.5593 4.92622 28.3392 5.14636C28.119 5.3665 27.9185 5.64534 27.7277 5.98289C27.5418 6.32043 27.3804 6.67266 27.2434 7.02977C27.1064 7.39178 27.0086 7.70975 26.945 7.99349L26.0546 11.8924H23.3445L24.6604 5.69426C24.68 5.58175 24.7093 5.44966 24.7387 5.31269C24.768 5.17571 24.7876 5.05342 24.7876 4.96047C24.7876 4.73055 24.7338 4.57889 24.6311 4.50551C24.5283 4.43214 24.3327 4.39789 24.0538 4.39789H23.7261L23.8679 3.50755H27.7962L27.532 4.94579H27.625C28.0652 4.33919 28.5153 3.92337 28.98 3.69345C29.4448 3.46353 29.9682 3.35101 30.5552 3.35101C31.201 3.35101 31.651 3.51245 31.9005 3.83532C32.15 4.15819 32.287 4.56911 32.3066 5.07298V5.16593H32.3848C32.7517 4.53976 33.1773 4.07991 33.6616 3.7815C34.1459 3.48309 34.7281 3.33633 35.4081 3.33633C35.8581 3.33633 36.2104 3.4195 36.4745 3.58582C36.7338 3.75215 36.9197 3.97229 37.0322 4.24135C37.1398 4.5153 37.1985 4.79903 37.1985 5.10234C37.1985 5.37629 37.1643 5.6698 37.0958 5.99267C37.0273 6.31554 36.9686 6.61395 36.9148 6.88301L36.587 8.51204C36.5234 8.79577 36.4745 9.05505 36.4305 9.29475C36.3865 9.53446 36.3669 9.75949 36.3669 9.96984C36.3669 10.4199 36.5479 10.6449 36.9148 10.6449C37.0811 10.6449 37.2279 10.6156 37.3551 10.552C37.4823 10.4884 37.6241 10.4003 37.7954 10.2878L38.2161 10.8651C37.9666 11.1488 37.6339 11.4081 37.2132 11.6576C36.7974 11.9022 36.2691 12.0245 35.6331 12.0245H35.6282Z" fill="black"/>
    <path d="M41.391 12.0538C40.8773 12.0538 40.4517 11.9266 40.1142 11.6771C39.7766 11.4276 39.5173 11.0852 39.3412 10.6498C39.1651 10.2144 39.0771 9.73012 39.0771 9.18711C39.0771 8.69791 39.1455 8.18426 39.2874 7.64614C39.4293 7.10802 39.6347 6.58458 39.9038 6.08071C40.1729 5.57684 40.5104 5.11699 40.9115 4.70118C41.3127 4.29025 41.7823 3.96249 42.3106 3.713C42.8439 3.4684 43.4309 3.3461 44.0815 3.3461C44.5071 3.3461 44.9523 3.4048 45.4024 3.5271C45.8573 3.6494 46.2047 3.76681 46.4444 3.87932L47.3347 3.51732H48.2886L47.2711 8.35548C47.2418 8.46799 47.2026 8.62943 47.1635 8.83489C47.1195 9.04035 47.0803 9.24581 47.0461 9.45128C47.0118 9.66163 46.9923 9.83285 46.9923 9.96983C46.9923 10.2193 47.0461 10.4052 47.1488 10.5275C47.2515 10.6498 47.3885 10.7085 47.5548 10.7085C47.6918 10.7085 47.8141 10.6841 47.9315 10.6302C48.0489 10.5764 48.1761 10.5079 48.3229 10.4248L48.6996 11.1145C48.4158 11.3249 48.0734 11.5304 47.6722 11.7407C47.2711 11.9511 46.7526 12.0538 46.1166 12.0538C45.6274 12.0538 45.2263 11.9462 44.9181 11.7309C44.6099 11.5157 44.4582 11.1928 44.4582 10.7525C44.4582 10.5324 44.4876 10.2487 44.5512 9.89155H44.4435C44.1696 10.3514 43.9103 10.7428 43.6511 11.0656C43.3967 11.3885 43.0934 11.6331 42.7411 11.7994C42.3938 11.9657 41.9389 12.0489 41.3861 12.0489L41.391 12.0538ZM42.5504 10.6938C42.8341 10.6938 43.1227 10.5324 43.426 10.2095C43.7293 9.88666 43.9984 9.47084 44.2381 8.96697C44.4778 8.4631 44.649 7.93477 44.7566 7.39176L45.2899 4.85772C45.1969 4.73053 45.0648 4.63758 44.8985 4.57398C44.7322 4.51039 44.5561 4.48104 44.3653 4.48104C44.0228 4.48104 43.7098 4.58866 43.4358 4.80391C43.157 5.01915 42.9173 5.30289 42.7069 5.65511C42.4965 6.01222 42.3253 6.39869 42.1835 6.81451C42.0416 7.23032 41.9389 7.65103 41.8704 8.06685C41.8019 8.48267 41.7676 8.85935 41.7676 9.192C41.7676 9.76436 41.841 10.1606 41.9927 10.3759C42.1443 10.5911 42.3302 10.6987 42.5504 10.6987V10.6938Z" fill="black"/>
    <path d="M52.4272 12.0538C51.8647 12.0538 51.4048 11.9217 51.0477 11.6527C50.6906 11.3885 50.4362 11.0363 50.2748 10.6058C50.1133 10.1753 50.0302 9.70077 50.0302 9.18712C50.0302 8.67346 50.0987 8.18426 50.2356 7.64615C50.3726 7.10803 50.5732 6.58459 50.8471 6.08072C51.1162 5.57684 51.4488 5.117 51.8402 4.70118C52.2316 4.29026 52.6816 3.96249 53.1953 3.713C53.704 3.46841 54.2764 3.34611 54.9026 3.34611C55.2059 3.34611 55.4945 3.38524 55.7733 3.45373C56.0473 3.52711 56.287 3.62006 56.4876 3.73746C56.4974 3.60049 56.5267 3.42927 56.5756 3.21402C56.6245 2.99878 56.6588 2.84713 56.6784 2.75418L56.8055 2.1916C56.8349 2.04484 56.8642 1.90787 56.8838 1.77578C56.9034 1.6437 56.9132 1.54097 56.9132 1.45291C56.9132 1.25724 56.8642 1.11048 56.7664 1.02242C56.6686 0.934366 56.4484 0.890338 56.1158 0.890338H55.7391L55.8956 0H60.0147L58.1998 8.53159C58.1557 8.79087 58.1068 9.06482 58.053 9.35345C57.9943 9.64207 57.9649 9.87199 57.9649 10.0481C57.9649 10.278 58.0188 10.4444 58.1313 10.5471C58.2389 10.6498 58.3759 10.7036 58.5324 10.7036C58.6694 10.7036 58.8064 10.6694 58.9482 10.6009C59.0901 10.5324 59.2075 10.4737 59.3005 10.4199L59.6771 11.0754C59.3836 11.3151 59.0314 11.5353 58.6205 11.7407C58.2095 11.9462 57.7008 12.044 57.0942 12.044C56.605 12.044 56.2038 11.9413 55.8956 11.7309C55.5874 11.5206 55.4358 11.1879 55.4358 10.7281C55.4358 10.552 55.4456 10.3905 55.4651 10.2438C55.4847 10.097 55.5043 9.97962 55.5287 9.88178H55.4358C55.0298 10.6841 54.5895 11.2466 54.1199 11.5646C53.6502 11.8826 53.0925 12.044 52.4468 12.044L52.4272 12.0538ZM53.5084 10.6938C53.7921 10.6938 54.0807 10.5324 54.3791 10.2095C54.6775 9.88667 54.9417 9.47085 55.1765 8.96698C55.4113 8.46311 55.5923 7.93477 55.7146 7.39176L56.2479 4.85773C56.1451 4.74521 55.9984 4.65226 55.8076 4.58377C55.6217 4.51529 55.4407 4.48104 55.2744 4.48104C54.9417 4.48104 54.6384 4.58867 54.3742 4.80391C54.1101 5.01916 53.8753 5.30289 53.6698 5.65512C53.4643 6.01223 53.2931 6.3987 53.1512 6.8194C53.0094 7.24011 52.9018 7.66082 52.8284 8.07175C52.755 8.48267 52.7207 8.85936 52.7207 9.19201C52.7207 9.76437 52.7941 10.1606 52.9458 10.3759C53.0974 10.5911 53.2833 10.6987 53.5035 10.6987L53.5084 10.6938Z" fill="black"/>
</svg>
