<svg width="64" height="64" viewBox="0 0 64 64" fill="none"
    xmlns="http://www.w3.org/2000/svg">
    <path d="M26.1733 58.872C25.499 56.3014 25.2058 53.7826 24.782 48.0408M24.782 48.0408C20.0995 44.1167 19.0483 40.7567 18.3278 33.9131C17.0817 29.9077 16.1167 28.2294 13.9399 26.1674C13.1102 24.8264 12.9953 24.1414 13.4011 23.0513C14.3099 21.6637 15.4079 21.7137 18.8389 23.8762C20.9553 25.4464 21.9578 26.904 23.3768 30.6332C24.0804 31.2264 24.4024 31.2648 24.8599 30.8582C26.7926 11.9556 27.4857 5.91906 28.6843 5.6466C30.1084 4.90442 30.8577 5.12906 32.1447 6.17152C32.989 7.36317 32.0602 12.8648 29.8645 24.5373L31.3475 24.7622C34.2519 11.7033 35.7516 5.61512 37.3131 5.43838C38.7419 5.30318 39.4443 5.3928 40.2042 6.38266C40.8195 6.42764 38.6975 14.2617 35.7966 25.4371L37.2796 25.6621C40.1166 16.248 41.8724 9.94755 43.4397 8.39061C45.0281 7.70384 45.8638 7.5426 46.8251 9.40988C47.3295 11.608 44.9145 18.3587 42.0731 27.4007L43.4812 28.12C47.5636 19.025 49.7639 14.1761 50.6743 14.0395C52.5838 13.575 53.061 14.0663 53.4904 15.4782C53.4525 18.0057 50.8528 23.1977 47.7053 30.2779L42.1146 47.1301C42.7274 50.931 43.0988 52.8691 43.8059 55.9839M24.782 48.0408C27.0564 48.8048 28.2245 48.9195 30.2198 48.8657M24.3134 31.127C29.5492 32.322 32.1513 34.6803 34.6856 39.4288M27.4816 30.2444C31.1334 30.5006 32.9487 30.8941 35.8104 32.0136C38.3173 33.0247 39.52 33.625 40.9483 34.8158" stroke="#333333" stroke-width="1.8" stroke-linecap="round" stroke-linejoin="round"/>
</svg> 